<svg xmlns="http://www.w3.org/2000/svg" xmlns:xlink="http://www.w3.org/1999/xlink" width="1920" zoomAndPan="magnify" viewBox="0 0 1440 809.999993" height="1080" preserveAspectRatio="xMidYMid meet" version="1.0"><defs><g/><clipPath id="3aa65ca164"><path d="M 553.492188 377.738281 L 608 377.738281 L 608 432.488281 L 553.492188 432.488281 Z M 553.492188 377.738281 " clip-rule="nonzero"/></clipPath><clipPath id="bdfb340ff1"><rect x="0" width="240" y="0" height="64"/></clipPath></defs><g clip-path="url(#3aa65ca164)"><path fill="#efa9fa" d="M 608 377.738281 L 608 404.996094 L 580.742188 377.738281 Z M 553.492188 377.738281 L 580.742188 404.996094 L 580.742188 377.738281 Z M 608 432.246094 L 608 404.996094 L 580.742188 404.996094 Z M 580.742188 432.246094 L 580.742188 404.996094 L 553.492188 404.996094 Z M 580.742188 432.246094 " fill-opacity="1" fill-rule="nonzero"/></g><g transform="matrix(1, 0, 0, 1, 641, 372)"><g clip-path="url(#bdfb340ff1)"><g fill="#ffffff" fill-opacity="1"><g transform="translate(0.116908, 47.604011)"><g><path d="M 10.28125 -30.96875 L 10.28125 0 L 2.734375 0 L 2.734375 -30.96875 Z M 10.28125 -30.96875 "/></g></g></g><g fill="#ffffff" fill-opacity="1"><g transform="translate(13.131178, 47.604011)"><g><path d="M 17.734375 -24.890625 C 20.617188 -24.890625 22.921875 -23.953125 24.640625 -22.078125 C 26.359375 -20.210938 27.21875 -17.648438 27.21875 -14.390625 L 27.21875 0 L 19.71875 0 L 19.71875 -13.375 C 19.71875 -15.019531 19.289062 -16.296875 18.4375 -17.203125 C 17.59375 -18.117188 16.445312 -18.578125 15 -18.578125 C 13.5625 -18.578125 12.414062 -18.117188 11.5625 -17.203125 C 10.707031 -16.296875 10.28125 -15.019531 10.28125 -13.375 L 10.28125 0 L 2.734375 0 L 2.734375 -24.625 L 10.28125 -24.625 L 10.28125 -21.359375 C 11.039062 -22.441406 12.066406 -23.300781 13.359375 -23.9375 C 14.660156 -24.570312 16.117188 -24.890625 17.734375 -24.890625 Z M 17.734375 -24.890625 "/></g></g></g><g fill="#ffffff" fill-opacity="1"><g transform="translate(42.865478, 47.604011)"><g><path d="M 13.9375 0.359375 C 11.53125 0.359375 9.363281 -0.15625 7.4375 -1.1875 C 5.507812 -2.21875 3.992188 -3.6875 2.890625 -5.59375 C 1.785156 -7.507812 1.234375 -9.75 1.234375 -12.3125 C 1.234375 -14.84375 1.789062 -17.070312 2.90625 -19 C 4.03125 -20.925781 5.5625 -22.398438 7.5 -23.421875 C 9.4375 -24.453125 11.613281 -24.96875 14.03125 -24.96875 C 16.445312 -24.96875 18.625 -24.453125 20.5625 -23.421875 C 22.5 -22.398438 24.023438 -20.925781 25.140625 -19 C 26.265625 -17.070312 26.828125 -14.84375 26.828125 -12.3125 C 26.828125 -9.78125 26.257812 -7.550781 25.125 -5.625 C 24 -3.695312 22.457031 -2.21875 20.5 -1.1875 C 18.539062 -0.15625 16.351562 0.359375 13.9375 0.359375 Z M 13.9375 -6.171875 C 15.382812 -6.171875 16.613281 -6.703125 17.625 -7.765625 C 18.644531 -8.828125 19.15625 -10.34375 19.15625 -12.3125 C 19.15625 -14.28125 18.660156 -15.789062 17.671875 -16.84375 C 16.679688 -17.90625 15.46875 -18.4375 14.03125 -18.4375 C 12.5625 -18.4375 11.335938 -17.914062 10.359375 -16.875 C 9.390625 -15.832031 8.90625 -14.3125 8.90625 -12.3125 C 8.90625 -10.34375 9.382812 -8.828125 10.34375 -7.765625 C 11.300781 -6.703125 12.5 -6.171875 13.9375 -6.171875 Z M 13.9375 -6.171875 "/></g></g></g><g fill="#ffffff" fill-opacity="1"><g transform="translate(70.967495, 47.604011)"><g><path d="M 13.8125 -7.0625 L 19.15625 -24.625 L 27.1875 -24.625 L 18.4375 0 L 9.140625 0 L 0.390625 -24.625 L 8.46875 -24.625 Z M 13.8125 -7.0625 "/></g></g></g><g fill="#ffffff" fill-opacity="1"><g transform="translate(98.584227, 47.604011)"><g><path d="M 1.234375 -12.359375 C 1.234375 -14.890625 1.710938 -17.109375 2.671875 -19.015625 C 3.628906 -20.929688 4.929688 -22.398438 6.578125 -23.421875 C 8.222656 -24.453125 10.0625 -24.96875 12.09375 -24.96875 C 13.820312 -24.96875 15.34375 -24.613281 16.65625 -23.90625 C 17.96875 -23.207031 18.976562 -22.285156 19.6875 -21.140625 L 19.6875 -24.625 L 27.21875 -24.625 L 27.21875 0 L 19.6875 0 L 19.6875 -3.484375 C 18.945312 -2.335938 17.921875 -1.410156 16.609375 -0.703125 C 15.304688 0.00390625 13.785156 0.359375 12.046875 0.359375 C 10.046875 0.359375 8.222656 -0.160156 6.578125 -1.203125 C 4.929688 -2.253906 3.628906 -3.742188 2.671875 -5.671875 C 1.710938 -7.597656 1.234375 -9.828125 1.234375 -12.359375 Z M 19.6875 -12.3125 C 19.6875 -14.195312 19.160156 -15.679688 18.109375 -16.765625 C 17.066406 -17.859375 15.796875 -18.40625 14.296875 -18.40625 C 12.796875 -18.40625 11.519531 -17.863281 10.46875 -16.78125 C 9.425781 -15.707031 8.90625 -14.234375 8.90625 -12.359375 C 8.90625 -10.472656 9.425781 -8.976562 10.46875 -7.875 C 11.519531 -6.769531 12.796875 -6.21875 14.296875 -6.21875 C 15.796875 -6.21875 17.066406 -6.757812 18.109375 -7.84375 C 19.160156 -8.9375 19.6875 -10.425781 19.6875 -12.3125 Z M 19.6875 -12.3125 "/></g></g></g><g fill="#ffffff" fill-opacity="1"><g transform="translate(128.539109, 47.604011)"><g><path d="M 25.015625 -30.96875 L 25.015625 -24.9375 L 16.8125 -24.9375 L 16.8125 0 L 9.265625 0 L 9.265625 -24.9375 L 1.0625 -24.9375 L 1.0625 -30.96875 Z M 25.015625 -30.96875 "/></g></g></g><g fill="#ffffff" fill-opacity="1"><g transform="translate(154.611772, 47.604011)"><g><path d="M 25.953125 -12.703125 C 25.953125 -12.003906 25.90625 -11.269531 25.8125 -10.5 L 8.734375 -10.5 C 8.847656 -8.96875 9.335938 -7.796875 10.203125 -6.984375 C 11.078125 -6.179688 12.144531 -5.78125 13.40625 -5.78125 C 15.289062 -5.78125 16.601562 -6.570312 17.34375 -8.15625 L 25.375 -8.15625 C 24.957031 -6.539062 24.210938 -5.085938 23.140625 -3.796875 C 22.066406 -2.503906 20.71875 -1.488281 19.09375 -0.75 C 17.476562 -0.0078125 15.671875 0.359375 13.671875 0.359375 C 11.265625 0.359375 9.117188 -0.15625 7.234375 -1.1875 C 5.347656 -2.21875 3.875 -3.6875 2.8125 -5.59375 C 1.757812 -7.507812 1.234375 -9.75 1.234375 -12.3125 C 1.234375 -14.875 1.753906 -17.109375 2.796875 -19.015625 C 3.847656 -20.929688 5.3125 -22.398438 7.1875 -23.421875 C 9.070312 -24.453125 11.234375 -24.96875 13.671875 -24.96875 C 16.054688 -24.96875 18.175781 -24.46875 20.03125 -23.46875 C 21.882812 -22.46875 23.332031 -21.039062 24.375 -19.1875 C 25.425781 -17.34375 25.953125 -15.179688 25.953125 -12.703125 Z M 18.21875 -14.6875 C 18.21875 -15.988281 17.773438 -17.019531 16.890625 -17.78125 C 16.015625 -18.539062 14.914062 -18.921875 13.59375 -18.921875 C 12.320312 -18.921875 11.253906 -18.550781 10.390625 -17.8125 C 9.523438 -17.082031 8.988281 -16.039062 8.78125 -14.6875 Z M 18.21875 -14.6875 "/></g></g></g><g fill="#ffffff" fill-opacity="1"><g transform="translate(181.787341, 47.604011)"><g><path d="M 1.234375 -12.3125 C 1.234375 -14.875 1.753906 -17.109375 2.796875 -19.015625 C 3.847656 -20.929688 5.304688 -22.398438 7.171875 -23.421875 C 9.035156 -24.453125 11.175781 -24.96875 13.59375 -24.96875 C 16.675781 -24.96875 19.253906 -24.160156 21.328125 -22.546875 C 23.398438 -20.929688 24.765625 -18.648438 25.421875 -15.703125 L 17.390625 -15.703125 C 16.710938 -17.585938 15.398438 -18.53125 13.453125 -18.53125 C 12.078125 -18.53125 10.972656 -17.992188 10.140625 -16.921875 C 9.316406 -15.847656 8.90625 -14.3125 8.90625 -12.3125 C 8.90625 -10.3125 9.316406 -8.773438 10.140625 -7.703125 C 10.972656 -6.628906 12.078125 -6.09375 13.453125 -6.09375 C 15.398438 -6.09375 16.710938 -7.03125 17.390625 -8.90625 L 25.421875 -8.90625 C 24.765625 -6.03125 23.390625 -3.765625 21.296875 -2.109375 C 19.210938 -0.460938 16.644531 0.359375 13.59375 0.359375 C 11.175781 0.359375 9.035156 -0.15625 7.171875 -1.1875 C 5.304688 -2.21875 3.847656 -3.6875 2.796875 -5.59375 C 1.753906 -7.507812 1.234375 -9.75 1.234375 -12.3125 Z M 1.234375 -12.3125 "/></g></g></g><g fill="#ffffff" fill-opacity="1"><g transform="translate(208.477625, 47.604011)"><g><path d="M 17.875 -24.890625 C 20.695312 -24.890625 22.957031 -23.953125 24.65625 -22.078125 C 26.363281 -20.210938 27.21875 -17.648438 27.21875 -14.390625 L 27.21875 0 L 19.71875 0 L 19.71875 -13.375 C 19.71875 -15.019531 19.289062 -16.296875 18.4375 -17.203125 C 17.59375 -18.117188 16.445312 -18.578125 15 -18.578125 C 13.5625 -18.578125 12.414062 -18.117188 11.5625 -17.203125 C 10.707031 -16.296875 10.28125 -15.019531 10.28125 -13.375 L 10.28125 0 L 2.734375 0 L 2.734375 -32.65625 L 10.28125 -32.65625 L 10.28125 -21.3125 C 11.039062 -22.394531 12.082031 -23.257812 13.40625 -23.90625 C 14.738281 -24.5625 16.226562 -24.890625 17.875 -24.890625 Z M 17.875 -24.890625 "/></g></g></g></g></g></svg>